<svg width="15" height="19" viewBox="0 0 15 19" fill="none" xmlns="http://www.w3.org/2000/svg">
<path fill-rule="evenodd" clip-rule="evenodd" d="M7.23271 10.6634C9.12569 10.6634 10.6602 9.12881 10.6602 7.23588C10.6602 5.34291 9.12569 3.80835 7.23271 3.80835C5.33973 3.80835 3.80518 5.34291 3.80518 7.23588C3.80518 9.12881 5.33973 10.6634 7.23271 10.6634ZM7.23271 9.14282C6.17955 9.14282 5.32579 8.28906 5.32579 7.23588C5.32579 6.18271 6.17955 5.32896 7.23271 5.32896C8.28587 5.32896 9.13963 6.18271 9.13963 7.23588C9.13963 8.28906 8.28587 9.14282 7.23271 9.14282Z" fill="black"/>
<path fill-rule="evenodd" clip-rule="evenodd" d="M14.292 8.81884C15.2768 4.40599 11.8038 0 7.22982 0C2.65711 0 -0.816189 4.41203 0.167716 8.81938C0.927157 12.3989 3.9982 15.8755 5.83109 17.6886C6.61607 18.465 7.84358 18.465 8.62856 17.6886C10.4615 15.8754 13.5328 12.3986 14.292 8.81884ZM7.22982 1.52334C10.8191 1.52334 13.5797 5.01658 12.8053 8.48706C12.4333 10.1546 11.5987 11.652 10.6193 13.0364C9.59588 14.4831 8.43547 15.7368 7.55726 16.6056C7.36586 16.7949 7.09379 16.7949 6.90238 16.6056C6.02417 15.7369 4.86391 14.4832 3.84045 13.0366C2.86101 11.6522 2.02673 10.155 1.65446 8.48744C0.880809 5.02192 3.64244 1.52334 7.22982 1.52334Z" fill="black"/>
</svg>
