<svg width="20" height="20" viewBox="0 0 20 20" fill="none" xmlns="http://www.w3.org/2000/svg">
<path d="M0.732662 0.732784C1.07933 0.386218 1.54946 0.191528 2.03965 0.191528C2.52984 0.191528 2.99997 0.386218 3.34664 0.732784L9.88342 7.26957L16.4202 0.732784C16.7689 0.39604 17.2358 0.209708 17.7205 0.21392C18.2052 0.218132 18.6689 0.412551 19.0117 0.755303C19.3544 1.09806 19.5488 1.56172 19.553 2.04642C19.5572 2.53113 19.3709 2.9981 19.0342 3.34676L12.4974 9.88354L19.0342 16.4203C19.3709 16.769 19.5572 17.2359 19.553 17.7207C19.5488 18.2054 19.3544 18.669 19.0117 19.0118C18.6689 19.3545 18.2052 19.5489 17.7205 19.5532C17.2358 19.5574 16.7689 19.371 16.4202 19.0343L9.88342 12.4975L3.34664 19.0343C2.99798 19.371 2.53101 19.5574 2.0463 19.5532C1.5616 19.5489 1.09793 19.3545 0.755181 19.0118C0.412429 18.669 0.21801 18.2054 0.213798 17.7207C0.209586 17.2359 0.395918 16.769 0.732662 16.4203L7.26944 9.88354L0.732662 3.34676C0.386096 3.00009 0.191406 2.52996 0.191406 2.03977C0.191406 1.54958 0.386096 1.07945 0.732662 0.732784Z" fill="white"/>
</svg>
