<svg width="23" height="26" viewBox="0 0 23 26" fill="none" xmlns="http://www.w3.org/2000/svg">
<path fill-rule="evenodd" clip-rule="evenodd" d="M2.51566 11.8188C2.33452 12.2509 2.3 12.4717 2.3 12.5247V21.6177C2.3 22.2439 2.8135 22.752 3.45 22.752H6.9V15.9338C6.9 14.6786 7.92974 13.6611 9.2 13.6611H13.8C15.0703 13.6611 16.1 14.6786 16.1 15.9338V22.752H19.55C20.1865 22.752 20.7 22.2439 20.7 21.6177V12.5247C20.7 12.4717 20.6655 12.2509 20.4844 11.8188C20.3161 11.4174 20.0609 10.9254 19.7279 10.3685C19.0629 9.25631 18.1297 7.95653 17.0853 6.71811C16.0385 5.47686 14.9085 4.33118 13.8577 3.50715C13.3325 3.09522 12.8496 2.78163 12.4263 2.57517C11.9934 2.36406 11.6887 2.29745 11.5 2.29745C11.3113 2.29745 11.0066 2.36406 10.5737 2.57517C10.1504 2.78163 9.66748 3.09522 9.14225 3.50715C8.0915 4.33118 6.9615 5.47686 5.9147 6.71811C4.87031 7.95653 3.93715 9.25631 3.2721 10.3685C2.93903 10.9254 2.68393 11.4174 2.51566 11.8188ZM9.55581 0.537117C10.1606 0.242196 10.8262 0.0247192 11.5 0.0247192C12.1738 0.0247192 12.8394 0.242196 13.4442 0.537117C14.0585 0.836696 14.6808 1.25109 15.2875 1.72695C16.5009 2.67848 17.7428 3.94758 18.8522 5.26315C19.9641 6.58155 20.9715 7.98063 21.7081 9.21224C22.0757 9.82715 22.3867 10.4181 22.6092 10.949C22.8189 11.4492 23 12.0096 23 12.5247V21.6177C23 23.5019 21.4541 25.0247 19.55 25.0247H16.1C14.8297 25.0247 13.8 24.0072 13.8 22.752V15.9338H9.2V22.752C9.2 24.0072 8.17026 25.0247 6.9 25.0247H3.45C1.54599 25.0247 0 23.5019 0 21.6177V12.5247C0 12.0096 0.181102 11.4492 0.390793 10.949C0.613341 10.4181 0.924244 9.82715 1.29197 9.21224C2.02847 7.98063 3.03594 6.58155 4.1478 5.26315C5.25725 3.94758 6.49912 2.67848 7.71244 1.72695C8.31921 1.25109 8.94149 0.836696 9.55581 0.537117Z" fill="#0F0F0F"/>
</svg>
