<svg width="20" height="26" viewBox="0 0 20 26" fill="none" xmlns="http://www.w3.org/2000/svg">
<path fill-rule="evenodd" clip-rule="evenodd" d="M9.89642 14.6152C12.4866 14.6152 14.5863 12.5154 14.5863 9.92534C14.5863 7.3352 12.4866 5.23547 9.89642 5.23547C7.30627 5.23547 5.20654 7.3352 5.20654 9.92534C5.20654 12.5154 7.30627 14.6152 9.89642 14.6152ZM9.89642 12.5346C8.45538 12.5346 7.28719 11.3664 7.28719 9.92534C7.28719 8.4843 8.45538 7.31612 9.89642 7.31612C11.3375 7.31612 12.5056 8.4843 12.5056 9.92534C12.5056 11.3664 11.3375 12.5346 9.89642 12.5346Z" fill="#0F0F0F"/>
<path fill-rule="evenodd" clip-rule="evenodd" d="M19.5557 12.0915C20.9032 6.0534 16.1511 0.0247192 9.89252 0.0247192C3.63571 0.0247192 -1.11679 6.06168 0.229485 12.0922C1.26862 16.9901 5.47071 21.7471 7.97864 24.2279C9.05272 25.2903 10.7323 25.2903 11.8064 24.2279C14.3144 21.747 18.5169 16.9896 19.5557 12.0915ZM9.89252 2.1091C14.8037 2.1091 18.5811 6.88888 17.5214 11.6375C17.0124 13.9192 15.8704 15.9681 14.5304 17.8623C13.13 19.8418 11.5422 21.5573 10.3406 22.746C10.0787 23.0051 9.70639 23.0051 9.44448 22.746C8.24284 21.5574 6.65525 19.8421 5.25486 17.8626C3.91471 15.9683 2.77316 13.9198 2.26379 11.638C1.20521 6.89618 4.98392 2.1091 9.89252 2.1091Z" fill="#0F0F0F"/>
</svg>
