<svg width="26" height="23" viewBox="0 0 26 23" fill="none" xmlns="http://www.w3.org/2000/svg">
<path fill-rule="evenodd" clip-rule="evenodd" d="M15.2437 0.847408C16.1406 0.445323 17.1895 0.417691 18.1112 0.771859L23.7195 2.92686C24.9729 3.40852 25.7856 4.5136 25.7856 5.73633V18.6231C25.7856 20.8174 23.2831 22.2969 21.0336 21.4325L17.216 19.9656C16.9087 19.8475 16.5591 19.8568 16.2601 19.9907L11.3276 22.202C10.4306 22.6041 9.38176 22.6317 8.46005 22.2776L2.85183 20.1226C1.59836 19.641 0.785645 18.5358 0.785645 17.3132V4.42636C0.785645 2.23198 3.28809 0.752491 5.53764 1.6169L9.35533 3.08387C9.66256 3.20193 10.0122 3.19272 10.3112 3.05869L15.2437 0.847408ZM17.8311 2.88121V17.9977C17.9255 18.0255 18.0191 18.0571 18.1112 18.0926L21.9289 19.5596C22.6787 19.8477 23.5129 19.3546 23.5129 18.6231V5.73633C23.5129 5.32875 23.242 4.96039 22.8242 4.79984L17.8311 2.88121ZM15.5584 18.0444V2.98461L11.3276 4.88129C11.2245 4.92748 11.1195 4.96872 11.0129 5.00501V20.0648L15.2437 18.1682C15.3468 18.1219 15.4518 18.0807 15.5584 18.0444ZM8.46005 4.95684C8.55226 4.99227 8.64572 5.02388 8.74019 5.05168V20.1682L3.7471 18.2496C3.32928 18.089 3.05837 17.7207 3.05837 17.3132V4.42636C3.05837 3.6949 3.89252 3.20173 4.64237 3.48987L8.46005 4.95684Z" fill="black"/>
</svg>
