<svg width="78" height="99" viewBox="0 0 78 99" fill="none" xmlns="http://www.w3.org/2000/svg">
<path d="M38.5709 8.21094C57.7198 8.21094 72.4476 27.0397 68.3158 45.7459C66.3312 54.734 61.8788 62.8053 56.6539 70.267C51.1938 78.065 45.0031 84.8226 40.3178 89.5053C39.2967 90.5259 37.8452 90.5259 36.824 89.5053C32.1388 84.823 25.9488 78.0658 20.4887 70.2683C15.2634 62.8062 10.8126 54.7364 8.82652 45.7479C4.6991 27.0685 19.4323 8.21094 38.5709 8.21094Z" fill="#5A8A98"/>
<path fill-rule="evenodd" clip-rule="evenodd" d="M76.2478 47.5342C81.5015 23.7486 62.9731 0 38.5709 0C14.1756 0 -4.35435 23.7812 0.894763 47.5371C4.94636 66.8312 21.3303 85.5702 31.1087 95.3428C35.2966 99.528 41.8453 99.528 46.0332 95.3428C55.812 85.5698 72.1972 66.8291 76.2478 47.5342ZM68.3158 45.7459C72.4476 27.0397 57.7198 8.21094 38.5709 8.21094C19.4323 8.21094 4.6991 27.0685 8.82652 45.7479C10.8126 54.7364 15.2634 62.8062 20.4887 70.2683C25.9488 78.0658 32.1388 84.823 36.824 89.5053C37.8452 90.5259 39.2967 90.5259 40.3178 89.5053C45.0031 84.8226 51.1938 78.065 56.6539 70.267C61.8788 62.8053 66.3312 54.734 68.3158 45.7459Z" fill="#5A8A98"/>
</svg>
