<svg width="21" height="19" viewBox="0 0 21 19" fill="none" xmlns="http://www.w3.org/2000/svg">
<path d="M13.2294 19H13.0494C12.5527 18.9691 12.0815 18.7798 11.7125 18.4628C11.3435 18.1459 11.0984 17.7199 11.0169 17.2541L9.85553 10.9426C9.82862 10.7882 9.75143 10.6457 9.63478 10.5351C9.51814 10.4245 9.36789 10.3513 9.20514 10.3257L2.55023 9.22426C2.06242 9.14258 1.61717 8.90918 1.28474 8.56088C0.952303 8.21259 0.751613 7.76923 0.714334 7.30076C0.677054 6.8323 0.805307 6.3654 1.07886 5.97373C1.3524 5.58206 1.75568 5.28792 2.22504 5.13773L17.788 0.11494C18.183 -0.0138818 18.6082 -0.0348925 19.0152 0.0543012C19.4222 0.143495 19.7945 0.339307 20.0899 0.619428C20.3853 0.89955 20.5917 1.25272 20.6858 1.6387C20.7798 2.02468 20.7577 2.42795 20.6218 2.80257L15.3316 17.5625C15.1866 17.9822 14.905 18.3475 14.5272 18.6058C14.1495 18.8641 13.6951 19.0021 13.2294 19ZM18.2584 1.4202L2.6896 6.43749C2.52562 6.48998 2.38476 6.59283 2.28932 6.72976C2.19387 6.86669 2.14929 7.02989 2.16261 7.19355C2.17594 7.35721 2.24641 7.51198 2.36289 7.63339C2.47937 7.75481 2.6352 7.83592 2.80574 7.86392L9.46065 8.96541C9.91008 9.04184 10.3241 9.24695 10.6469 9.55316C10.9698 9.85936 11.1861 10.252 11.2666 10.6782L12.4281 16.9898C12.4576 17.1515 12.5431 17.2993 12.6711 17.4098C12.7991 17.5202 12.9623 17.5871 13.1349 17.5997C13.3075 17.6123 13.4795 17.5701 13.6239 17.4795C13.7683 17.389 13.8767 17.2554 13.9321 17.0999L19.2456 2.35647C19.2923 2.226 19.2996 2.08572 19.2667 1.95151C19.2337 1.8173 19.1618 1.69453 19.0591 1.59708C18.9563 1.49964 18.8269 1.43143 18.6853 1.40017C18.5438 1.36891 18.3959 1.37585 18.2584 1.4202Z" fill="#5A8A98"/>
</svg>
