<svg width="26" height="26" viewBox="0 0 26 26" fill="none" xmlns="http://www.w3.org/2000/svg">
<path fill-rule="evenodd" clip-rule="evenodd" d="M22.25 7.49153C21.963 7.78385 21.6732 8.04174 21.4106 8.2579C21.1576 8.04907 20.8788 7.79685 20.6033 7.509C19.6771 6.54139 19.0549 5.45787 19.0549 4.43177C19.0549 3.02649 20.1642 1.9478 21.4587 1.9478C22.7532 1.9478 23.8626 3.02649 23.8626 4.43177C23.8626 5.42504 23.2233 6.50005 22.25 7.49153ZM25.7856 4.43177C25.7856 7.95741 21.4587 10.6016 21.4587 10.6016C21.2424 10.6016 17.1318 7.95741 17.1318 4.43177C17.1318 1.99782 19.069 0.0247192 21.4587 0.0247192C23.8485 0.0247192 25.7856 1.99782 25.7856 4.43177ZM2.70872 8.67857C2.70872 10.2716 4.00021 11.5632 5.59334 11.5632H20.978C23.6332 11.5632 25.7856 13.7156 25.7856 16.3709C25.7856 19.0261 23.6332 21.1786 20.978 21.1786H10.401V19.2555H20.978C22.571 19.2555 23.8626 17.9639 23.8626 16.3709C23.8626 14.7778 22.571 13.4863 20.978 13.4863H5.59334C2.93812 13.4863 0.785645 11.3338 0.785645 8.67857C0.785645 6.02335 2.93812 3.87087 5.59334 3.87087H16.1703V5.79395H5.59334C4.00021 5.79395 2.70872 7.08544 2.70872 8.67857ZM5.90379 21.9146C5.61679 22.2069 5.32711 22.4648 5.06452 22.681C4.81143 22.4722 4.5327 22.22 4.25714 21.932C3.33088 20.9645 2.70872 19.881 2.70872 18.8548C2.70872 17.4496 3.81807 16.3709 5.11257 16.3709C6.40707 16.3709 7.51641 17.4496 7.51641 18.8548C7.51641 19.8482 6.87725 20.9232 5.90379 21.9146ZM9.43949 18.8548C9.43949 22.3805 5.11257 25.0247 5.11257 25.0247C4.89622 25.0247 0.785645 22.3805 0.785645 18.8548C0.785645 16.4209 2.72288 14.4478 5.11257 14.4478C7.50226 14.4478 9.43949 16.4209 9.43949 18.8548ZM6.55488 18.7747C6.55488 19.5713 5.90913 20.217 5.11257 20.217C4.316 20.217 3.67026 19.5713 3.67026 18.7747C3.67026 17.9782 4.316 17.3324 5.11257 17.3324C5.90913 17.3324 6.55488 17.9782 6.55488 18.7747ZM21.4587 5.79395C22.2553 5.79395 22.901 5.14821 22.901 4.35164C22.901 3.55508 22.2553 2.90933 21.4587 2.90933C20.6622 2.90933 20.0164 3.55508 20.0164 4.35164C20.0164 5.14821 20.6622 5.79395 21.4587 5.79395Z" fill="#0F0F0F"/>
</svg>
