<svg width="25" height="26" viewBox="0 0 25 26" fill="none" xmlns="http://www.w3.org/2000/svg">
<path fill-rule="evenodd" clip-rule="evenodd" d="M3.64667 5.94825C3.38539 4.34987 4.83608 3.0132 6.36934 3.43956L7.53021 3.76237C8.45154 4.01858 9.42914 3.63321 9.94185 2.81172L11.0545 1.02894C11.9107 -0.342978 13.875 -0.342981 14.7312 1.02894L15.8438 2.81172C16.3565 3.63321 17.3341 4.01858 18.2555 3.76237L19.4163 3.43956C20.9497 3.0132 22.4003 4.34987 22.139 5.94825L21.8527 7.70002C21.7056 8.60032 22.1134 9.50079 22.881 9.97039L23.9421 10.6196C25.3527 11.4825 25.3527 13.5669 23.9421 14.4298L22.881 15.0791C22.1134 15.5486 21.7056 16.4492 21.8527 17.3495L22.139 19.1012C22.4003 20.6996 20.9497 22.0362 19.4163 21.6099L18.2555 21.2871C17.3341 21.0308 16.3565 21.4162 15.8438 22.2377L14.7312 24.0205C13.875 25.3924 11.9107 25.3924 11.0545 24.0205L9.94185 22.2377C9.42914 21.4162 8.45154 21.0308 7.53021 21.2871L6.36934 21.6099C4.83608 22.0362 3.38539 20.6996 3.64667 19.1012L3.93301 17.3495C4.08017 16.4492 3.67234 15.5486 2.90475 15.0791L1.84355 14.4298C0.433008 13.5669 0.43301 11.4825 1.84355 10.6196L2.90475 9.97039C3.67234 9.50079 4.08017 8.60032 3.93301 7.70002L3.64667 5.94825ZM9.62437 5.85953H6.3559V9.19211L3.08741 12.5247L6.3559 15.8573V19.1899H9.62437L12.8929 22.5225L16.1614 19.1899H19.4299V15.8573L22.6983 12.5247L19.4299 9.19211V5.85953H16.1614L12.8929 2.52693L9.62437 5.85953Z" fill="#0F0F0F"/>
<path d="M17.4853 12.5248C17.4853 15.2917 15.4292 17.5347 12.8929 17.5347C10.3566 17.5347 8.30054 15.2917 8.30054 12.5248C8.30054 9.75791 10.3566 7.51489 12.8929 7.51489C15.4292 7.51489 17.4853 9.75791 17.4853 12.5248ZM10.3387 12.5248C10.3387 14.0637 11.4822 15.3113 12.8929 15.3113C14.3036 15.3113 15.4472 14.0637 15.4472 12.5248C15.4472 10.9859 14.3036 9.7383 12.8929 9.7383C11.4822 9.7383 10.3387 10.9859 10.3387 12.5248Z" fill="#0F0F0F"/>
</svg>
