<svg width="18" height="18" viewBox="0 0 18 18" fill="none" xmlns="http://www.w3.org/2000/svg">
<path d="M11.0851 15H7.33506C5.98506 15 3.43506 14.3175 3.43506 11.73C3.43506 9.14254 5.98506 8.46004 7.33506 8.46004H10.6651C10.7776 8.46004 13.4401 8.42254 13.4401 6.31504C13.4401 4.20754 10.7776 4.17004 10.6651 4.17004H6.91506C6.76588 4.17004 6.6228 4.11078 6.51731 4.00529C6.41182 3.8998 6.35256 3.75673 6.35256 3.60754C6.35256 3.45836 6.41182 3.31528 6.51731 3.2098C6.6228 3.10431 6.76588 3.04504 6.91506 3.04504H10.6651C12.0151 3.04504 14.5651 3.72754 14.5651 6.31504C14.5651 8.90254 12.0151 9.58504 10.6651 9.58504H7.33506C7.22256 9.58504 4.56006 9.62254 4.56006 11.73C4.56006 13.8375 7.22256 13.875 7.33506 13.875H11.0851C11.2342 13.875 11.3773 13.9343 11.4828 14.0398C11.5883 14.1453 11.6476 14.2884 11.6476 14.4375C11.6476 14.5867 11.5883 14.7298 11.4828 14.8353C11.3773 14.9408 11.2342 15 11.0851 15Z" fill="#5A8A98"/>
<path d="M4.83008 6.23253C4.30743 6.22808 3.7978 6.06904 3.36539 5.77545C2.93298 5.48185 2.59715 5.06683 2.40021 4.58269C2.20327 4.09855 2.15404 3.56695 2.25873 3.05487C2.3634 2.5428 2.61732 2.07317 2.98845 1.70516C3.35959 1.33714 3.83136 1.08722 4.3443 0.986873C4.85724 0.88653 5.38841 0.940253 5.87086 1.14128C6.35332 1.34231 6.76548 1.68164 7.05541 2.11652C7.34534 2.5514 7.50006 3.06236 7.50008 3.58503C7.50008 3.93461 7.43088 4.28072 7.29642 4.6034C7.16197 4.92609 6.96494 5.21895 6.71671 5.46509C6.46848 5.71123 6.17396 5.90578 5.85015 6.03749C5.52633 6.16921 5.17965 6.2355 4.83008 6.23253ZM4.83008 2.06253C4.53341 2.06253 4.2434 2.1505 3.99672 2.31533C3.75005 2.48015 3.55779 2.71442 3.44426 2.9885C3.33073 3.26259 3.30102 3.56419 3.3589 3.85517C3.41678 4.14614 3.55965 4.4134 3.76942 4.62319C3.9792 4.83296 4.24647 4.97583 4.53744 5.03371C4.82842 5.09158 5.13002 5.06188 5.40411 4.94835C5.67819 4.83482 5.91246 4.64255 6.07728 4.39588C6.24211 4.14921 6.33008 3.8592 6.33008 3.56253C6.33008 3.36554 6.29128 3.17049 6.2159 2.9885C6.14052 2.80652 6.03003 2.64116 5.89074 2.50186C5.75145 2.36258 5.58609 2.25209 5.40411 2.17671C5.22212 2.10133 5.02707 2.06253 4.83008 2.06253Z" fill="#5A8A98"/>
<path d="M13.1699 17.0625C12.646 17.064 12.1333 16.9099 11.697 16.6199C11.2606 16.3299 10.9201 15.917 10.7186 15.4333C10.5171 14.9497 10.4635 14.4171 10.5649 13.9031C10.6662 13.389 10.9177 12.9165 11.2877 12.5456C11.6577 12.1746 12.1294 11.9217 12.6432 11.8189C13.1569 11.7161 13.6897 11.7681 14.1739 11.9682C14.6581 12.1684 15.072 12.5078 15.3632 12.9433C15.6544 13.3788 15.8099 13.891 15.8099 14.415C15.8099 15.1158 15.532 15.7881 15.0371 16.2843C14.5423 16.7807 13.8708 17.0604 13.1699 17.0625ZM13.1699 12.8925C12.8732 12.8925 12.5833 12.9804 12.3366 13.1453C12.0899 13.3101 11.8976 13.5444 11.7841 13.8184C11.6706 14.0925 11.6409 14.3941 11.6987 14.6851C11.7566 14.976 11.8995 15.2433 12.1093 15.4531C12.319 15.6629 12.5863 15.8058 12.8773 15.8637C13.1683 15.9215 13.4698 15.8918 13.744 15.7782C14.018 15.6648 14.2523 15.4725 14.4171 15.2258C14.5819 14.9791 14.6699 14.6892 14.6699 14.3925C14.6699 13.9947 14.5119 13.6131 14.2306 13.3318C13.9492 13.0505 13.5677 12.8925 13.1699 12.8925Z" fill="#5A8A98"/>
</svg>
